Coordinates
version=1
nRows=5
nColumns=63
inDegrees=yes

Units are S.I. units (second, meters, Newtons, ...)
If the header above contains a line with 'inDegrees', this indicates whether rotational values are in degrees (yes) or radians (no).

endheader
time	pelvis_tilt	pelvis_list	pelvis_rotation	pelvis_tx	pelvis_ty	pelvis_tz	hip_flexion_r	hip_adduction_r	hip_rotation_r	knee_angle_r	knee_angle_r_beta	ankle_angle_r	subtalar_angle_r	mtp_angle_r	hip_flexion_l	hip_adduction_l	hip_rotation_l	knee_angle_l	knee_angle_l_beta	ankle_angle_l	subtalar_angle_l	mtp_angle_l	L5_S1_Flex_Ext	L5_S1_Lat_Bending	L5_S1_axial_rotation	L4_L5_Flex_Ext	L4_L5_Lat_Bending	L4_L5_axial_rotation	L3_L4_Flex_Ext	L3_L4_Lat_Bending	L3_L4_axial_rotation	L2_L3_Flex_Ext	L2_L3_Lat_Bending	L2_L3_axial_rotation	L1_L2_Flex_Ext	L1_L2_Lat_Bending	L1_L2_axial_rotation	L1_T12_Flex_Ext	L1_T12_Lat_Bending	L1_T12_axial_rotation	Abs_r3	Abs_r2	Abs_r1	Abs_t1	Abs_t2	neck_flexion	neck_bending	neck_rotation	arm_flex_r	arm_add_r	arm_rot_r	elbow_flex_r	pro_sup_r	wrist_flex_r	wrist_dev_r	arm_flex_l	arm_add_l	arm_rot_l	elbow_flex_l	pro_sup_l	wrist_flex_l	wrist_dev_l
      2.06779661	     -7.48805263	     -3.21004648	     98.96662187	      0.07338950	      0.52223764	      0.83723326	      1.51276050	     -4.21687221	    -11.70206431	      4.71931442	      0.08236757	     29.67331357	     15.71561866	      0.00000000	      4.28708210	      4.28553868	      0.86620735	      8.05057459	      0.14050903	     22.00458281	     -2.08678578	      0.00000000	     -0.02686422	     -0.63903113	      0.33243996	     -0.04988955	     -0.84991140	      0.35321746	     -0.04413523	     -1.55374029	      0.35321746	     -0.03070312	     -1.55374029	      0.29088497	     -0.02494612	     -1.30311228	      0.27010747	     -0.01535022	     -0.98985922	      0.24932997	     -0.19188846	     -7.22884793	      1.84893134	      0.00000000	      0.00000000	      4.52123339	      5.97973832	      2.31566754	   -270.99245652	    -97.92735718	   -248.57138230	      8.56233853	     37.88855506	     -8.30354606	      0.19644595	   -138.26051757	   -102.59832959	     86.72873156	     20.57897451	      3.59519739	    -12.66690227	      7.87040761
      2.08474576	     -7.59015646	     -3.15954069	     98.83654879	      0.07378181	      0.52212459	      0.83663635	      1.37926828	     -4.28830720	    -11.53517341	      4.57236840	      0.07980288	     29.75146940	     15.79994272	      0.00000000	      4.12619827	      4.36103858	      0.80010629	      7.95245368	      0.13879650	     22.01091473	     -2.11001962	      0.00000000	     -0.02191299	     -0.65391225	      0.39989610	     -0.04069461	     -0.86970329	      0.42488960	     -0.03600085	     -1.58992224	      0.42488960	     -0.02504435	     -1.58992224	      0.34990909	     -0.02034840	     -1.33345785	      0.32491558	     -0.01252108	     -1.01291007	      0.29992207	     -0.15652229	     -7.39718612	      2.22410212	      0.00000000	      0.00000000	      4.71971150	      5.83337284	      2.30035214	   -270.92753703	    -98.30513685	   -248.34779475	      8.75378933	     37.90161371	     -8.16360394	      0.42560364	   -138.57076198	   -102.27564241	     86.08310877	     19.97508170	      3.62376707	    -12.68176067	      7.09459810
      2.10169492	     -7.68776650	     -3.06910830	     98.59468717	      0.07423868	      0.52211576	      0.83607220	      1.26643661	     -4.36291938	    -11.20398478	      4.50173815	      0.07857015	     29.86058964	     15.79930172	      0.00000000	      3.89458172	      4.42537200	      0.70408249	      7.79882205	      0.13611512	     21.94725337	     -2.20050081	      0.00000000	     -0.02014354	     -0.66400162	      0.45571326	     -0.03740857	     -0.88312215	      0.48419534	     -0.03309382	     -1.61445354	      0.48419534	     -0.02302205	     -1.61445354	      0.39874910	     -0.01870529	     -1.35403210	      0.37026702	     -0.01151002	     -1.02853851	      0.34178495	     -0.14388330	     -7.51131912	      2.53454044	      0.00000000	      0.00000000	      4.86898127	      5.45957146	      2.42066043	   -270.80036069	    -98.32319077	   -247.67124674	      8.64271190	     38.10494151	     -8.13817240	      1.00639580	   -138.80188876	   -101.83369363	     84.47860107	     19.37112591	      3.44765972	    -12.80443579	      6.78282018
      2.11864407	     -7.47688726	     -3.40144124	     98.55435438	      0.07342499	      0.52178049	      0.83441191	      1.45194013	     -4.20339741	    -10.78947517	      4.23536802	      0.07392112	     29.81550828	     15.49423599	      0.00000000	      4.04615774	      4.33871539	      1.42591847	      7.56263209	      0.13199283	     21.77265426	     -3.13956816	      0.00000000	      0.04998374	     -0.62423201	      0.03270397	      0.09282479	     -0.83022858	      0.03474797	      0.08211828	     -1.51775772	      0.03474797	      0.05712641	     -1.51775772	      0.02861598	      0.04641490	     -1.27293392	      0.02657198	      0.02856071	     -0.96693539	      0.02452798	      0.35702882	     -7.06143737	      0.18188969	      0.00000000	      0.00000000	      5.57232670	      4.87871288	      5.58761548	   -267.83085781	    -95.22974409	   -250.72039764	      7.79772051	     44.54075175	     -8.15767572	      1.93548442	    -62.78191784	    -85.45030128	     27.95600912	      1.62719049	     82.08950346	     -6.27823039	      6.06166426
      2.13559322	     -7.39968208	     -3.35526776	     98.46752240	      0.07324805	      0.52190670	      0.83416955	      1.37853243	     -4.13566596	    -10.61708575	      4.10802375	      0.07169854	     29.88018806	     15.50398393	      0.00000000	      3.95882551	      4.26037684	      1.37697639	      7.50227332	      0.13093937	     21.82182979	     -3.14679981	      0.00000000	      0.05214732	     -0.60650741	      0.08067559	      0.09684279	     -0.80665485	      0.08571782	      0.08567283	     -1.47466211	      0.08571782	      0.05959917	     -1.47466211	      0.07059114	      0.04842400	     -1.23678990	      0.06554892	      0.02979698	     -0.93947997	      0.06050670	      0.37248310	     -6.86093309	      0.44869345	      0.00000000	      0.00000000	      5.88625707	      4.22830924	      5.59169522	   -267.69246815	    -95.52899191	   -250.44254066	      7.50464172	     44.98981342	     -8.25823265	      2.55729613	    -59.98396775	    -85.09293211	     25.12330746	      1.60193821	     79.48581728	     -6.84004619	      6.15359480
